<?xml version="1.0" encoding="UTF-8" standalone="no"?>
<svg width="370px" height="239px" viewBox="0 0 370 239" version="1.1" xmlns="http://www.w3.org/2000/svg" xmlns:xlink="http://www.w3.org/1999/xlink">
    <!-- Generator: Sketch 42 (36781) - http://www.bohemiancoding.com/sketch -->
    <title>Image Icon 84px</title>
    <desc>Created with Sketch.</desc>
    <defs></defs>
    <g id="Home" stroke="none" stroke-width="1" fill="none" fill-rule="evenodd" opacity="0.0416666667">
        <g id="About-screen:-why" fill="#297FCA">
            <g id="Content-Icons-/-Image-84px" transform="translate(-27.000000, -57.000000)">
                <path d="M293.13856,285.665965 L242.20725,230.651509 L329.815345,156.921544 L426.595238,261.451088 L426.595238,285.665965 L293.13856,285.665965 Z M10.4047619,217.928702 L126.100512,120.555088 L278.972476,285.665965 L10.4047619,285.665965 L10.4047619,217.928702 Z M426.595238,10.3392281 L426.595238,246.147368 L330.704952,142.578526 L235.137214,223.017825 L126.995321,106.217263 L10.4047619,204.338667 L10.4047619,10.3392281 L426.595238,10.3392281 Z M0,296 L0,0 L437,0 L437,296 L0,296 Z M236.94244,139.391074 C259.890143,139.391074 278.561488,120.75346 278.561488,97.847214 C278.561488,74.9409684 259.890143,56.3033544 236.94244,56.3033544 C213.994738,56.3033544 195.323393,74.9409684 195.323393,97.847214 C195.323393,120.75346 213.994738,139.391074 236.94244,139.391074 Z M236.94244,66.6893193 C254.157119,66.6893193 268.156726,80.6636351 268.156726,97.847214 C268.156726,115.030793 254.157119,129.005109 236.94244,129.005109 C219.727762,129.005109 205.728155,115.030793 205.728155,97.847214 C205.728155,80.6636351 219.727762,66.6893193 236.94244,66.6893193 Z" id="Icon"></path>
            </g>
        </g>
    </g>
</svg>