<?xml version="1.0" encoding="UTF-8" standalone="no"?>
<svg width="18px" height="18px" viewBox="0 0 18 18" version="1.1" xmlns="http://www.w3.org/2000/svg" xmlns:xlink="http://www.w3.org/1999/xlink">
    <!-- Generator: Sketch 43.1 (39012) - http://www.bohemiancoding.com/sketch -->
    <title>Page 1</title>
    <desc>Created with Sketch.</desc>
    <defs></defs>
    <g id="Home" stroke="none" stroke-width="1" fill="none" fill-rule="evenodd">
        <g id="Component" transform="translate(-617.000000, -1477.000000)">
            <g id="Page-1" transform="translate(618.000000, 1478.000000)">
                <g id="Group-3">
                    <path d="M5.62911475,12.1833443 L4.6455082,13.9016393 L8,12.9169836 L11.355541,13.9016393 L10.3719344,12.1833443 C11.819541,11.7316721 13.3576393,11.4845902 14.9539672,11.4845902 L13.7070164,10.4047213 L15.8688525,7.91186885 L12.5778361,7.67816393 L12.6945574,6.03278689 C12.0451148,6.68327869 11.3495082,7.25822951 10.6219016,7.76629508 C10.8679344,6.19147541 11.2980984,4.61980328 11.9344262,3.08196721 L9.9682623,4.06662295 L8,0.131147541 L6.03278689,4.06557377 C6.03278689,4.06557377 4.06557377,3.08091803 4.06557377,3.08196721 C4.70190164,4.6187541 5.13206557,6.19068852 5.37809836,7.7652459 C4.64970492,7.25718033 3.95383607,6.6824918 3.30544262,6.0317377 L3.42216393,7.67737705 L0.131147541,7.91186885 L2.29298361,10.4047213 C2.29298361,10.4047213 1.04708197,11.4856393 1.04708197,11.4845902 C2.64236066,11.4856393 4.1812459,11.7316721 5.62911475,12.1833443 Z" id="Fill-1" fill="#D0011B"></path>
                    <path d="M5.62911475,12.1833443 L4.6455082,13.9016393 L8,12.9169836 L11.355541,13.9016393 L10.3719344,12.1833443 C11.819541,11.7316721 13.3576393,11.4845902 14.9539672,11.4845902 L13.7070164,10.4047213 L15.8688525,7.91186885 L12.5778361,7.67816393 L12.6945574,6.03278689 C12.0451148,6.68327869 11.3495082,7.25822951 10.6219016,7.76629508 C10.8679344,6.19147541 11.2980984,4.61980328 11.9344262,3.08196721 L9.9682623,4.06662295 L8,0.131147541 L6.03278689,4.06557377 C6.03278689,4.06557377 4.06557377,3.08091803 4.06557377,3.08196721 C4.70190164,4.6187541 5.13206557,6.19068852 5.37809836,7.7652459 C4.64970492,7.25718033 3.95383607,6.6824918 3.30544262,6.0317377 L3.42216393,7.67737705 L0.131147541,7.91186885 L2.29298361,10.4047213 C2.29298361,10.4047213 1.04708197,11.4856393 1.04708197,11.4845902 C2.64236066,11.4856393 4.1812459,11.7316721 5.62911475,12.1833443 Z" id="Stroke-2" stroke="#D0011B" stroke-width="1.5" stroke-linecap="round" stroke-linejoin="round"></path>
                </g>
                <path d="M8,15.8688525 L8,4.06557377 L8,15.8688525 Z" id="Stroke-4" stroke="#D0011B" stroke-width="1.5" stroke-linecap="round" stroke-linejoin="round"></path>
                <polygon id="Stroke-5" stroke="#D0011B" stroke-width="1.5" stroke-linecap="round" stroke-linejoin="round" points="2.85770492 9.04104918 8 11.1721967 13.1422951 9.04104918 8 11.1721967"></polygon>
            </g>
        </g>
    </g>
</svg>